<?xml version="1.0" encoding="UTF-8" standalone="no"?>
<!DOCTYPE svg PUBLIC "-//W3C//DTD SVG 1.1//EN" "http://www.w3.org/Graphics/SVG/1.1/DTD/svg11.dtd">
<svg width="100%" height="100%" viewBox="0 0 1182 1182" version="1.1" xmlns="http://www.w3.org/2000/svg" xmlns:xlink="http://www.w3.org/1999/xlink" xml:space="preserve" xmlns:serif="http://www.serif.com/" style="fill-rule:evenodd;clip-rule:evenodd;stroke-linejoin:round;stroke-miterlimit:2;">
    <g transform="matrix(26.4261,0,0,26.4261,-17325,-18576)">
        <g transform="matrix(1,0,0,1,694.202,720.86)">
            <path d="M0,8.837C-0.004,10.011 -0.036,11.188 -0.177,12.355C-0.369,13.95 -0.804,15.47 -1.735,16.807C-3.027,18.659 -4.809,19.782 -7.001,20.281C-8.196,20.554 -9.412,20.608 -10.629,20.652C-12.518,20.722 -14.408,20.693 -16.371,20.709C-18.145,20.693 -19.992,20.731 -21.838,20.66C-22.713,20.628 -23.586,20.59 -24.459,20.485C-25.44,20.366 -26.387,20.125 -27.28,19.72C-28.001,19.392 -28.695,19.007 -29.292,18.462C-30.012,17.807 -30.673,17.102 -31.142,16.249C-31.759,15.13 -32.137,13.924 -32.295,12.653C-32.527,10.794 -32.515,8.923 -32.521,7.055C-32.529,4.805 -32.527,2.554 -32.513,0.304C-32.503,-0.977 -32.472,-2.258 -32.333,-3.533C-32.194,-4.809 -31.87,-6.043 -31.256,-7.171C-30.271,-8.984 -28.806,-10.277 -26.869,-11.018C-25.733,-11.452 -24.553,-11.662 -23.345,-11.73C-19.952,-11.92 -16.558,-11.833 -13.164,-11.842C-12.001,-11.845 -10.839,-11.813 -9.678,-11.762C-8.212,-11.698 -6.769,-11.502 -5.406,-10.92C-3.045,-9.916 -1.474,-8.182 -0.658,-5.755C-0.268,-4.589 -0.115,-3.384 -0.067,-2.164C0.08,1.503 0.02,5.171 0,8.837M5.798,4.51C5.785,0.451 5.809,-3.526 5.767,-7.506C5.757,-8.415 5.649,-9.31 5.442,-10.191C4.997,-12.088 4.061,-13.706 2.628,-15.034C1.686,-15.907 0.586,-16.512 -0.611,-16.946C-1.48,-17.261 -2.385,-17.417 -3.302,-17.507C-4.312,-17.605 -5.326,-17.603 -6.339,-17.605C-12.008,-17.614 -17.679,-17.614 -23.348,-17.611C-25.201,-17.609 -27.053,-17.642 -28.903,-17.535C-29.745,-17.486 -30.576,-17.346 -31.382,-17.104C-35.394,-15.905 -37.785,-12.67 -38.181,-8.653C-38.276,-7.698 -38.279,-6.741 -38.282,-5.784C-38.301,1.509 -38.318,8.801 -38.267,16.095C-38.262,16.898 -38.174,17.691 -38.034,18.478C-37.76,20.024 -37.17,21.437 -36.203,22.681C-35.168,24.014 -33.867,24.996 -32.302,25.632C-30.864,26.216 -29.351,26.397 -27.822,26.427C-25.702,26.471 -23.581,26.464 -21.462,26.468C-16.389,26.474 -11.316,26.479 -6.243,26.45C-5.024,26.442 -3.809,26.43 -2.598,26.258C-1.439,26.092 -0.333,25.763 0.704,25.222C1.561,24.775 2.325,24.2 3.002,23.51C3.855,22.635 4.504,21.626 4.97,20.494C5.48,19.26 5.729,17.971 5.754,16.647C5.826,12.575 5.782,8.504 5.798,4.51" style="fill:white;fill-rule:nonzero;"/>
        </g>
        <g transform="matrix(1,0,0,1,686.621,731.981)">
            <path d="M0,-13.433C-1.025,-13.425 -1.946,-14.304 -1.936,-15.403C-1.925,-16.46 -1.031,-17.353 0.042,-17.334C1.125,-17.317 1.985,-16.439 1.967,-15.351C1.949,-14.275 1.075,-13.42 0,-13.433M-8.686,1.663C-13.301,1.657 -17.045,-2.097 -17.026,-6.717C-17.008,-11.334 -13.318,-15.044 -8.669,-15.051C-4.061,-15.057 -0.313,-11.311 -0.314,-6.689C-0.317,-2.073 -4.067,1.668 -8.686,1.663M4.649,-10.932C4.629,-12.293 4.637,-13.659 4.381,-15.002C4.035,-16.823 3.157,-18.271 1.45,-19.132C0.812,-19.454 0.144,-19.671 -0.561,-19.787C-1.601,-19.959 -2.651,-19.99 -3.701,-20.002C-7.379,-20.049 -11.059,-20.091 -14.737,-19.972C-15.756,-19.938 -16.77,-19.857 -17.757,-19.567C-19.055,-19.187 -20.095,-18.445 -20.841,-17.325C-21.449,-16.413 -21.718,-15.373 -21.838,-14.293C-21.951,-13.286 -21.979,-12.274 -21.99,-11.261C-22.028,-7.786 -22.059,-4.31 -21.953,-0.834C-21.924,0.102 -21.875,1.04 -21.652,1.957C-21.095,4.248 -19.677,5.684 -17.387,6.256C-16.352,6.515 -15.296,6.54 -14.241,6.583C-12.376,6.658 -10.511,6.617 -8.646,6.623C-7.192,6.623 -5.737,6.638 -4.281,6.619C-3.058,6.603 -1.832,6.59 -0.618,6.402C0.286,6.263 1.136,5.964 1.918,5.49C2.45,5.17 2.874,4.722 3.264,4.246C3.614,3.819 3.857,3.331 4.05,2.814C4.406,1.857 4.511,0.855 4.575,-0.154C4.611,-0.725 4.635,-1.296 4.643,-1.868C4.689,-4.889 4.694,-7.911 4.649,-10.932" style="fill:white;fill-rule:nonzero;"/>
        </g>
        <g transform="matrix(1,0,0,1,681.784,721.458)">
            <path d="M0,7.66C-1.048,8.722 -2.342,9.236 -3.63,9.255C-6.833,9.258 -9.259,6.831 -9.259,3.828C-9.257,0.831 -6.844,-1.598 -3.841,-1.591C-0.698,-1.586 1.307,0.861 1.548,3.195C1.726,4.927 1.221,6.424 0,7.66" style="fill:white;fill-rule:nonzero;"/>
        </g>
    </g>
</svg>
