<?xml version="1.0" encoding="UTF-8" standalone="no"?>
<!DOCTYPE svg PUBLIC "-//W3C//DTD SVG 1.1//EN" "http://www.w3.org/Graphics/SVG/1.1/DTD/svg11.dtd">
<svg width="100%" height="100%" viewBox="0 0 1182 1182" version="1.1" xmlns="http://www.w3.org/2000/svg" xmlns:xlink="http://www.w3.org/1999/xlink" xml:space="preserve" xmlns:serif="http://www.serif.com/" style="fill-rule:evenodd;clip-rule:evenodd;stroke-linejoin:round;stroke-miterlimit:2;">
    <g transform="matrix(24.6642,0,0,24.6642,-14092.4,-17297)">
        <g transform="matrix(1,0,0,1,613.912,722.56)">
            <path d="M0,5.538C0,6.011 -0.12,6.358 -0.464,6.699C-2.472,8.675 -4.465,10.667 -6.441,12.674C-6.803,13.042 -7.178,13.161 -7.676,13.158C-10.726,13.142 -13.777,13.186 -16.826,13.129C-17.76,13.111 -18.409,13.394 -19.046,14.066C-20.752,15.862 -22.531,17.588 -24.282,19.34C-24.35,19.315 -24.418,19.29 -24.488,19.264C-24.488,17.594 -24.486,15.924 -24.488,14.253C-24.488,13.152 -24.488,13.152 -25.556,13.15C-28.064,13.15 -30.572,13.115 -33.077,13.171C-33.896,13.189 -34.053,12.916 -34.052,12.162C-34.027,2.882 -34.028,-6.398 -34.05,-15.677C-34.052,-16.396 -33.896,-16.65 -33.121,-16.649C-22.368,-16.624 -11.615,-16.625 -0.863,-16.646C-0.195,-16.646 0.009,-16.481 0.008,-15.785C-0.019,-8.678 -0.012,-1.569 0,5.538M4.251,-20.111C4.252,-20.759 4.076,-20.923 3.432,-20.921C-3.289,-20.897 -10.011,-20.905 -16.731,-20.905C-23.453,-20.905 -30.173,-20.899 -36.895,-20.92C-37.522,-20.921 -37.859,-20.766 -38.095,-20.146C-38.948,-17.901 -39.862,-15.679 -40.76,-13.451C-40.909,-13.083 -40.966,-12.714 -40.964,-12.32C-40.96,-1.799 -40.955,8.723 -40.975,19.244C-40.977,19.89 -40.801,20.068 -40.157,20.061C-36.771,20.031 -33.384,20.063 -30,20.034C-29.405,20.029 -29.25,20.217 -29.261,20.782C-29.292,22.385 -29.247,23.988 -29.284,25.59C-29.298,26.211 -29.146,26.461 -28.472,26.439C-27.001,26.391 -25.526,26.406 -24.053,26.434C-23.571,26.442 -23.234,26.281 -22.902,25.944C-21.159,24.176 -19.383,22.441 -17.651,20.664C-17.223,20.224 -16.794,20.024 -16.17,20.034C-13.663,20.068 -11.156,20.04 -8.648,20.054C-8.21,20.058 -7.874,19.961 -7.547,19.634C-3.774,15.839 0.009,12.057 3.803,8.282C4.124,7.962 4.245,7.632 4.245,7.186C4.235,-1.913 4.231,-11.012 4.251,-20.111" style="fill:white;fill-rule:nonzero;"/>
        </g>
        <g transform="matrix(1,0,0,1,595.295,714.427)">
            <path d="M0,11.156C0.001,11.611 -0.175,11.729 -0.596,11.717C-1.421,11.693 -2.25,11.682 -3.076,11.719C-3.582,11.741 -3.747,11.575 -3.739,11.064C-3.714,9.23 -3.729,7.395 -3.729,5.561C-3.729,3.778 -3.711,1.995 -3.74,0.211C-3.75,-0.34 -3.636,-0.585 -3.023,-0.545C-2.199,-0.491 -1.369,-0.517 -0.543,-0.537C-0.146,-0.548 0,-0.417 -0.001,-0.008C-0.012,3.714 -0.014,7.434 0,11.156" style="fill:white;fill-rule:nonzero;"/>
        </g>
        <g transform="matrix(1,0,0,1,606.462,714.393)">
            <path d="M0,11.23C0.001,11.653 -0.174,11.756 -0.557,11.749C-1.409,11.73 -2.263,11.719 -3.115,11.751C-3.59,11.771 -3.742,11.608 -3.736,11.134C-3.714,9.301 -3.727,7.465 -3.727,5.63C-3.728,3.823 -3.711,2.013 -3.737,0.205C-3.745,-0.314 -3.627,-0.541 -3.058,-0.509C-2.207,-0.464 -1.354,-0.486 -0.5,-0.501C-0.137,-0.509 0,-0.378 -0.001,-0.011C-0.009,3.737 -0.011,7.484 0,11.23" style="fill:white;fill-rule:nonzero;"/>
        </g>
    </g>
</svg>
