<?xml version="1.0" encoding="UTF-8" standalone="no"?>
<!DOCTYPE svg PUBLIC "-//W3C//DTD SVG 1.1//EN" "http://www.w3.org/Graphics/SVG/1.1/DTD/svg11.dtd">
<svg width="100%" height="100%" viewBox="0 0 1182 1182" version="1.1" xmlns="http://www.w3.org/2000/svg" xmlns:xlink="http://www.w3.org/1999/xlink" xml:space="preserve" xmlns:serif="http://www.serif.com/" style="fill-rule:evenodd;clip-rule:evenodd;stroke-linejoin:round;stroke-miterlimit:2;">
    <g transform="matrix(21.6572,0,0,21.6572,1162.74,942.832)">
        <path d="M0,-32.475C-0.891,-30.875 -2.109,-29.576 -3.479,-28.457C-4.437,-27.676 -4.933,-26.881 -4.961,-25.588C-5.088,-19.869 -6.537,-14.474 -9.496,-9.563C-14.597,-1.103 -22,4.011 -31.853,5.306C-38.485,6.178 -44.876,5.273 -50.864,2.129C-51.53,1.78 -52.182,1.401 -52.84,1.038C-52.828,0.934 -52.813,0.832 -52.8,0.728C-47.112,1.114 -41.955,-0.244 -37.111,-3.859C-39.886,-4.173 -42.142,-4.951 -44.028,-6.608C-45.341,-7.757 -46.344,-9.118 -47.031,-10.721C-47.273,-11.287 -47.177,-11.488 -46.517,-11.481C-45.295,-11.464 -44.055,-11.32 -42.676,-11.742C-44.488,-12.403 -46.085,-13.084 -47.414,-14.282C-49.65,-16.298 -50.891,-18.79 -51.179,-21.782C-51.248,-22.512 -51.128,-22.756 -50.381,-22.385C-49.27,-21.831 -48.092,-21.485 -46.825,-21.46C-46.749,-21.958 -47.168,-22.08 -47.404,-22.293C-50.953,-25.471 -52.076,-30.732 -50.165,-35.099C-49.835,-35.851 -49.612,-35.993 -48.976,-35.348C-46.684,-33.016 -44.333,-30.753 -41.483,-29.073C-37.265,-26.584 -32.734,-25.088 -27.852,-24.635C-27.121,-24.569 -26.911,-24.657 -26.999,-25.493C-27.634,-31.423 -24.411,-36.306 -18.712,-37.769C-15.267,-38.653 -11.953,-38.035 -9.185,-35.655C-8.236,-34.84 -7.365,-34.69 -6.245,-35.063C-5.035,-35.47 -3.853,-35.93 -2.691,-36.461C-2.268,-36.656 -1.854,-36.95 -1.235,-36.708C-1.849,-34.951 -2.977,-33.577 -4.301,-32.322C-4.535,-32.099 -5.117,-31.962 -4.87,-31.496C-4.619,-31.019 -4.227,-31.476 -3.93,-31.55C-2.639,-31.862 -1.362,-32.238 0,-32.475" style="fill:white;fill-rule:nonzero;"/>
    </g>
</svg>
