<?xml version="1.0" encoding="UTF-8" standalone="no"?>
<!DOCTYPE svg PUBLIC "-//W3C//DTD SVG 1.1//EN" "http://www.w3.org/Graphics/SVG/1.1/DTD/svg11.dtd">
<svg width="100%" height="100%" viewBox="0 0 1182 1182" version="1.1" xmlns="http://www.w3.org/2000/svg" xmlns:xlink="http://www.w3.org/1999/xlink" xml:space="preserve" xmlns:serif="http://www.serif.com/" style="fill-rule:evenodd;clip-rule:evenodd;stroke-linejoin:round;stroke-miterlimit:2;">
    <g transform="matrix(18.7054,0,0,18.7054,467.989,407.332)">
        <path d="M0,18.169L0,-0.047C5.25,2.989 10.458,6.006 15.73,9.057C10.473,12.105 5.258,15.121 0,18.169M36.118,1.481C35.963,-0.656 35.746,-2.784 35.269,-4.878C34.478,-8.376 32.237,-10.523 28.731,-11.144C26.099,-11.609 23.431,-11.745 20.767,-11.877C15.676,-12.125 10.578,-12.222 4.68,-12.202C1.609,-12.218 -2.257,-12.117 -6.123,-11.97C-9.426,-11.838 -12.726,-11.664 -16.01,-11.229C-20.108,-10.69 -22.617,-8.321 -23.346,-4.301C-23.978,-0.784 -24.156,2.775 -24.272,6.335C-24.389,9.965 -24.272,13.59 -23.985,17.207C-23.811,19.356 -23.621,21.512 -23.04,23.598C-22.245,26.44 -20.399,28.285 -17.545,29.065C-15.688,29.568 -13.761,29.661 -11.853,29.801C-7.929,30.092 -3.998,30.208 -0.07,30.278C6.181,30.391 12.431,30.336 18.677,30.092C21.899,29.964 25.122,29.801 28.324,29.348C30.627,29.025 32.547,28.065 33.954,26.164C34.939,24.834 35.304,23.287 35.563,21.705C36.18,17.975 36.331,14.206 36.417,10.438C36.486,7.448 36.335,4.462 36.118,1.481" style="fill:white;fill-rule:nonzero;"/>
    </g>
</svg>
